{
  "materials": [
    {
      "name": "02_-_Defaultmen05.bmp",
      "occlusionTexture": {
        "index": 0,
        "texCoord": 1
      },
      "pbrMetallicRoughness": {
        "baseColorTexture": {
          "index": 1,
          "texCoord": 0
        },
        "baseColorFactor": [
          1.0,
          1.0,
          1.0,
          1.0
        ],
        "metallicFactor": 0.09999999,
        "roughnessFactor": 0.95
      },
      "alphaMode": "OPAQUE"
    },
    {
      "name": "02_-_Defaultmen04.bmp",
      "occlusionTexture": {
        "index": 2,
        "texCoord": 1
      },
      "pbrMetallicRoughness": {
        "baseColorTexture": {
          "index": 1,
          "texCoord": 0
        },
        "baseColorFactor": [
          1.0,
          1.0,
          1.0,
          1.0
        ],
        "metallicFactor": 0.09999999,
        "roughnessFactor": 0.95
      },
      "alphaMode": "OPAQUE"
    },
    {
      "name": "02_-_Defaultmen03.bmp",
      "occlusionTexture": {
        "index": 3,
        "texCoord": 1
      },
      "pbrMetallicRoughness": {
        "baseColorTexture": {
          "index": 1,
          "texCoord": 0
        },
        "baseColorFactor": [
          1.0,
          1.0,
          1.0,
          1.0
        ],
        "metallicFactor": 0.09999999,
        "roughnessFactor": 0.95
      },
      "alphaMode": "OPAQUE"
    },
    {
      "name": "01_-_Default",
      "pbrMetallicRoughness": {
        "baseColorFactor": [
          0.466666728,
          0.474509865,
          0.5176471,
          0.5
        ],
        "metallicFactor": 0.09999999,
        "roughnessFactor": 0.95
      },
      "alphaMode": "BLEND"
    }
  ],
  "images": [
    {
      "uri": "CA84DA8019D9242E8724D81467C577F2.jpg"
    },
    {
      "uri": "A458F3002E33AE3B1C52E9A4E6122711.jpg"
    },
    {
      "uri": "869A2327264B6BC526476BB938C97962.jpg"
    },
    {
      "uri": "6C3CF82E94F3CA159D9F8271C8A37381.jpg"
    }
  ],
  "textures": [
    {
      "name": "men05.jpg",
      "sampler": 0,
      "source": 0
    },
    {
      "name": "深灰.jpg",
      "sampler": 0,
      "source": 1
    },
    {
      "name": "men04.jpg",
      "sampler": 0,
      "source": 2
    },
    {
      "name": "men03.jpg",
      "sampler": 0,
      "source": 3
    }
  ],
  "meshes": [
    {
      "name": "Rectangle002",
      "primitives": [
        {
          "material": 0,
          "mode": 4,
          "indices": 6,
          "attributes": {
            "COLOR_0": 9,
            "NORMAL": 8,
            "POSITION": 7,
            "TEXCOORD_0": 10,
            "TEXCOORD_1": 11
          }
        }
      ]
    },
    {
      "name": "Rectangle005",
      "primitives": [
        {
          "material": 1,
          "mode": 4,
          "indices": 12,
          "attributes": {
            "COLOR_0": 15,
            "NORMAL": 14,
            "POSITION": 13,
            "TEXCOORD_0": 16,
            "TEXCOORD_1": 17
          }
        }
      ]
    },
    {
      "name": "Box001",
      "primitives": [
        {
          "material": 2,
          "mode": 4,
          "indices": 18,
          "attributes": {
            "COLOR_0": 21,
            "NORMAL": 20,
            "POSITION": 19,
            "TEXCOORD_0": 22,
            "TEXCOORD_1": 23
          }
        }
      ]
    },
    {
      "name": "Box004",
      "primitives": [
        {
          "material": 3,
          "mode": 4,
          "indices": 24,
          "attributes": {
            "COLOR_0": 27,
            "NORMAL": 26,
            "POSITION": 25,
            "TEXCOORD_0": 28,
            "TEXCOORD_1": 29
          }
        }
      ]
    },
    {
      "name": "Box003",
      "primitives": [
        {
          "material": 3,
          "mode": 4,
          "indices": 30,
          "attributes": {
            "COLOR_0": 33,
            "NORMAL": 32,
            "POSITION": 31,
            "TEXCOORD_0": 34,
            "TEXCOORD_1": 35
          }
        }
      ]
    },
    {
      "name": "Box002",
      "primitives": [
        {
          "material": 3,
          "mode": 4,
          "indices": 36,
          "attributes": {
            "COLOR_0": 39,
            "NORMAL": 38,
            "POSITION": 37,
            "TEXCOORD_0": 40,
            "TEXCOORD_1": 41
          }
        }
      ]
    }
  ],
  "buffers": [
    {
      "byteLength": 18260,
      "uri": "961B3C595AC64A5DDD326F9CBDD3C71B.bin"
    }
  ],
  "nodes": [
    {
      "name": "RootNode",
      "translation": [
        0.0,
        0.0,
        0.0
      ],
      "rotation": [
        0.0,
        0.0,
        0.0,
        1.0
      ],
      "scale": [
        1.0,
        1.0,
        1.0
      ],
      "children": [
        1,
        3,
        5,
        6
      ]
    },
    {
      "name": "Rectangle002",
      "translation": [
        0.350000023841858,
        1.04999971389771,
        -0.0199999362230301
      ],
      "rotation": [
        8.14603424714733E-08,
        0.0,
        0.0,
        1.0
      ],
      "scale": [
        1.0,
        1.0,
        1.0
      ],
      "children": [
        2
      ],
      "mesh": 0
    },
    {
      "name": "Box004",
      "translation": [
        0.0,
        -0.125196874141693,
        0.00937998294830322
      ],
      "rotation": [
        -0.707106828689575,
        0.0,
        0.0,
        0.707106709480286
      ],
      "scale": [
        1.0,
        1.0,
        1.0
      ],
      "mesh": 3
    },
    {
      "name": "Rectangle005",
      "translation": [
        -0.349999994039536,
        1.04999971389771,
        -0.0199999362230301
      ],
      "rotation": [
        8.14603424714733E-08,
        0.0,
        0.0,
        1.0
      ],
      "scale": [
        1.0,
        1.0,
        1.0
      ],
      "children": [
        4
      ],
      "mesh": 1
    },
    {
      "name": "Box003",
      "translation": [
        0.0,
        -0.14526903629303,
        0.0093799838796258
      ],
      "rotation": [
        -0.707106828689575,
        0.0,
        0.0,
        0.707106709480286
      ],
      "scale": [
        1.0,
        1.0,
        1.0
      ],
      "mesh": 4
    },
    {
      "name": "Box001",
      "translation": [
        0.0,
        0.0,
        0.0160329341888428
      ],
      "rotation": [
        -0.70710676908493,
        0.0,
        0.0,
        0.70710676908493
      ],
      "scale": [
        1.0,
        1.0,
        1.0
      ],
      "mesh": 2
    },
    {
      "name": "Box002",
      "translation": [
        -1.06882572174072,
        0.0,
        0.009380042552948
      ],
      "rotation": [
        -0.70710676908493,
        0.0,
        0.0,
        0.70710676908493
      ],
      "scale": [
        1.0,
        1.0,
        1.0
      ],
      "mesh": 5
    }
  ],
  "asset": {
    "generator": "FBX2glTF",
    "version": "2.0"
  },
  "scene": 0,
  "bufferViews": [
    {
      "buffer": 0,
      "byteLength": 100,
      "byteOffset": 0
    },
    {
      "buffer": 0,
      "byteLength": 300,
      "byteOffset": 100
    },
    {
      "buffer": 0,
      "byteLength": 300,
      "byteOffset": 400
    },
    {
      "buffer": 0,
      "byteLength": 100,
      "byteOffset": 700
    },
    {
      "buffer": 0,
      "byteLength": 300,
      "byteOffset": 800
    },
    {
      "buffer": 0,
      "byteLength": 300,
      "byteOffset": 1100
    },
    {
      "buffer": 0,
      "byteLength": 192,
      "byteOffset": 1400,
      "target": 34963
    },
    {
      "buffer": 0,
      "byteLength": 576,
      "byteOffset": 1592,
      "target": 34962
    },
    {
      "buffer": 0,
      "byteLength": 576,
      "byteOffset": 2168,
      "target": 34962
    },
    {
      "buffer": 0,
      "byteLength": 768,
      "byteOffset": 2744,
      "target": 34962
    },
    {
      "buffer": 0,
      "byteLength": 384,
      "byteOffset": 3512,
      "target": 34962
    },
    {
      "buffer": 0,
      "byteLength": 384,
      "byteOffset": 3896,
      "target": 34962
    },
    {
      "buffer": 0,
      "byteLength": 192,
      "byteOffset": 4280,
      "target": 34963
    },
    {
      "buffer": 0,
      "byteLength": 576,
      "byteOffset": 4472,
      "target": 34962
    },
    {
      "buffer": 0,
      "byteLength": 576,
      "byteOffset": 5048,
      "target": 34962
    },
    {
      "buffer": 0,
      "byteLength": 768,
      "byteOffset": 5624,
      "target": 34962
    },
    {
      "buffer": 0,
      "byteLength": 384,
      "byteOffset": 6392,
      "target": 34962
    },
    {
      "buffer": 0,
      "byteLength": 384,
      "byteOffset": 6776,
      "target": 34962
    },
    {
      "buffer": 0,
      "byteLength": 588,
      "byteOffset": 7160,
      "target": 34963
    },
    {
      "buffer": 0,
      "byteLength": 1848,
      "byteOffset": 7748,
      "target": 34962
    },
    {
      "buffer": 0,
      "byteLength": 1848,
      "byteOffset": 9596,
      "target": 34962
    },
    {
      "buffer": 0,
      "byteLength": 2464,
      "byteOffset": 11444,
      "target": 34962
    },
    {
      "buffer": 0,
      "byteLength": 1232,
      "byteOffset": 13908,
      "target": 34962
    },
    {
      "buffer": 0,
      "byteLength": 1232,
      "byteOffset": 15140,
      "target": 34962
    },
    {
      "buffer": 0,
      "byteLength": 24,
      "byteOffset": 16372,
      "target": 34963
    },
    {
      "buffer": 0,
      "byteLength": 96,
      "byteOffset": 16396,
      "target": 34962
    },
    {
      "buffer": 0,
      "byteLength": 96,
      "byteOffset": 16492,
      "target": 34962
    },
    {
      "buffer": 0,
      "byteLength": 128,
      "byteOffset": 16588,
      "target": 34962
    },
    {
      "buffer": 0,
      "byteLength": 64,
      "byteOffset": 16716,
      "target": 34962
    },
    {
      "buffer": 0,
      "byteLength": 64,
      "byteOffset": 16780,
      "target": 34962
    },
    {
      "buffer": 0,
      "byteLength": 24,
      "byteOffset": 16844,
      "target": 34963
    },
    {
      "buffer": 0,
      "byteLength": 96,
      "byteOffset": 16868,
      "target": 34962
    },
    {
      "buffer": 0,
      "byteLength": 96,
      "byteOffset": 16964,
      "target": 34962
    },
    {
      "buffer": 0,
      "byteLength": 128,
      "byteOffset": 17060,
      "target": 34962
    },
    {
      "buffer": 0,
      "byteLength": 64,
      "byteOffset": 17188,
      "target": 34962
    },
    {
      "buffer": 0,
      "byteLength": 64,
      "byteOffset": 17252,
      "target": 34962
    },
    {
      "buffer": 0,
      "byteLength": 48,
      "byteOffset": 17316,
      "target": 34963
    },
    {
      "buffer": 0,
      "byteLength": 192,
      "byteOffset": 17364,
      "target": 34962
    },
    {
      "buffer": 0,
      "byteLength": 192,
      "byteOffset": 17556,
      "target": 34962
    },
    {
      "buffer": 0,
      "byteLength": 256,
      "byteOffset": 17748,
      "target": 34962
    },
    {
      "buffer": 0,
      "byteLength": 128,
      "byteOffset": 18004,
      "target": 34962
    },
    {
      "buffer": 0,
      "byteLength": 128,
      "byteOffset": 18132,
      "target": 34962
    }
  ],
  "scenes": [
    {
      "name": "Root Scene",
      "nodes": [
        0
      ]
    }
  ],
  "accessors": [
    {
      "componentType": 5126,
      "type": "SCALAR",
      "count": 25,
      "bufferView": 0,
      "byteOffset": 0,
      "min": [
        0.0
      ],
      "max": [
        1.0
      ]
    },
    {
      "componentType": 5126,
      "type": "VEC3",
      "count": 25,
      "bufferView": 1,
      "byteOffset": 0
    },
    {
      "componentType": 5126,
      "type": "VEC3",
      "count": 25,
      "bufferView": 2,
      "byteOffset": 0
    },
    {
      "componentType": 5126,
      "type": "SCALAR",
      "count": 25,
      "bufferView": 3,
      "byteOffset": 0,
      "min": [
        -3.33786010742188E-06
      ],
      "max": [
        0.999996781349182
      ]
    },
    {
      "componentType": 5126,
      "type": "VEC3",
      "count": 25,
      "bufferView": 4,
      "byteOffset": 0
    },
    {
      "componentType": 5126,
      "type": "VEC3",
      "count": 25,
      "bufferView": 5,
      "byteOffset": 0
    },
    {
      "componentType": 5123,
      "type": "SCALAR",
      "count": 96,
      "bufferView": 6,
      "byteOffset": 0
    },
    {
      "componentType": 5126,
      "type": "VEC3",
      "count": 48,
      "bufferView": 7,
      "byteOffset": 0,
      "min": [
        -0.349999994039536,
        -1.04999995231628,
        -4.15453715874037E-09
      ],
      "max": [
        0.349999994039536,
        1.04999995231628,
        0.0200000032782555
      ]
    },
    {
      "componentType": 5126,
      "type": "VEC3",
      "count": 48,
      "bufferView": 8,
      "byteOffset": 0
    },
    {
      "componentType": 5126,
      "type": "VEC4",
      "count": 48,
      "bufferView": 9,
      "byteOffset": 0
    },
    {
      "componentType": 5126,
      "type": "VEC2",
      "count": 48,
      "bufferView": 10,
      "byteOffset": 0
    },
    {
      "componentType": 5126,
      "type": "VEC2",
      "count": 48,
      "bufferView": 11,
      "byteOffset": 0
    },
    {
      "componentType": 5123,
      "type": "SCALAR",
      "count": 96,
      "bufferView": 12,
      "byteOffset": 0
    },
    {
      "componentType": 5126,
      "type": "VEC3",
      "count": 48,
      "bufferView": 13,
      "byteOffset": 0,
      "min": [
        -0.349999994039536,
        -1.04999995231628,
        -4.15453715874037E-09
      ],
      "max": [
        0.349999994039536,
        1.04999995231628,
        0.0200000032782555
      ]
    },
    {
      "componentType": 5126,
      "type": "VEC3",
      "count": 48,
      "bufferView": 14,
      "byteOffset": 0
    },
    {
      "componentType": 5126,
      "type": "VEC4",
      "count": 48,
      "bufferView": 15,
      "byteOffset": 0
    },
    {
      "componentType": 5126,
      "type": "VEC2",
      "count": 48,
      "bufferView": 16,
      "byteOffset": 0
    },
    {
      "componentType": 5126,
      "type": "VEC2",
      "count": 48,
      "bufferView": 17,
      "byteOffset": 0
    },
    {
      "componentType": 5123,
      "type": "SCALAR",
      "count": 294,
      "bufferView": 18,
      "byteOffset": 0
    },
    {
      "componentType": 5126,
      "type": "VEC3",
      "count": 154,
      "bufferView": 19,
      "byteOffset": 0,
      "min": [
        -1.4681704044342,
        -0.0360327512025833,
        -2.38418579101563E-07
      ],
      "max": [
        1.4681704044342,
        0.0360327139496803,
        2.30351543426514
      ]
    },
    {
      "componentType": 5126,
      "type": "VEC3",
      "count": 154,
      "bufferView": 20,
      "byteOffset": 0
    },
    {
      "componentType": 5126,
      "type": "VEC4",
      "count": 154,
      "bufferView": 21,
      "byteOffset": 0
    },
    {
      "componentType": 5126,
      "type": "VEC2",
      "count": 154,
      "bufferView": 22,
      "byteOffset": 0
    },
    {
      "componentType": 5126,
      "type": "VEC2",
      "count": 154,
      "bufferView": 23,
      "byteOffset": 0
    },
    {
      "componentType": 5123,
      "type": "SCALAR",
      "count": 12,
      "bufferView": 24,
      "byteOffset": 0
    },
    {
      "componentType": 5126,
      "type": "VEC3",
      "count": 8,
      "bufferView": 25,
      "byteOffset": 0,
      "min": [
        -0.313235342502594,
        -0.00329604465514421,
        -0.853187561035156
      ],
      "max": [
        0.313235342502594,
        0.00329607259482145,
        1.11453151702881
      ]
    },
    {
      "componentType": 5126,
      "type": "VEC3",
      "count": 8,
      "bufferView": 26,
      "byteOffset": 0
    },
    {
      "componentType": 5126,
      "type": "VEC4",
      "count": 8,
      "bufferView": 27,
      "byteOffset": 0
    },
    {
      "componentType": 5126,
      "type": "VEC2",
      "count": 8,
      "bufferView": 28,
      "byteOffset": 0
    },
    {
      "componentType": 5126,
      "type": "VEC2",
      "count": 8,
      "bufferView": 29,
      "byteOffset": 0
    },
    {
      "componentType": 5123,
      "type": "SCALAR",
      "count": 12,
      "bufferView": 30,
      "byteOffset": 0
    },
    {
      "componentType": 5126,
      "type": "VEC3",
      "count": 8,
      "bufferView": 31,
      "byteOffset": 0,
      "min": [
        -0.313235342502594,
        -0.00329610425978899,
        -0.833115458488464
      ],
      "max": [
        0.313235342502594,
        0.00329601299017668,
        1.1346036195755
      ]
    },
    {
      "componentType": 5126,
      "type": "VEC3",
      "count": 8,
      "bufferView": 32,
      "byteOffset": 0
    },
    {
      "componentType": 5126,
      "type": "VEC4",
      "count": 8,
      "bufferView": 33,
      "byteOffset": 0
    },
    {
      "componentType": 5126,
      "type": "VEC2",
      "count": 8,
      "bufferView": 34,
      "byteOffset": 0
    },
    {
      "componentType": 5126,
      "type": "VEC2",
      "count": 8,
      "bufferView": 35,
      "byteOffset": 0
    },
    {
      "componentType": 5123,
      "type": "SCALAR",
      "count": 24,
      "bufferView": 36,
      "byteOffset": 0
    },
    {
      "componentType": 5126,
      "type": "VEC3",
      "count": 16,
      "bufferView": 37,
      "byteOffset": 0,
      "min": [
        -0.332060873508453,
        -0.00329606793820858,
        0.0716152191162109
      ],
      "max": [
        2.47139763832092,
        0.00329604931175709,
        2.03933429718018
      ]
    },
    {
      "componentType": 5126,
      "type": "VEC3",
      "count": 16,
      "bufferView": 38,
      "byteOffset": 0
    },
    {
      "componentType": 5126,
      "type": "VEC4",
      "count": 16,
      "bufferView": 39,
      "byteOffset": 0
    },
    {
      "componentType": 5126,
      "type": "VEC2",
      "count": 16,
      "bufferView": 40,
      "byteOffset": 0
    },
    {
      "componentType": 5126,
      "type": "VEC2",
      "count": 16,
      "bufferView": 41,
      "byteOffset": 0
    }
  ],
  "samplers": [
    {}
  ],
  "animations": [
    {
      "name": "Auto_Open",
      "channels": [
        {
          "sampler": 0,
          "target": {
            "node": 1,
            "path": "translation"
          }
        },
        {
          "sampler": 1,
          "target": {
            "node": 3,
            "path": "translation"
          }
        }
      ],
      "samplers": [
        {
          "input": 0,
          "interpolation": "LINEAR",
          "output": 1
        },
        {
          "input": 0,
          "interpolation": "LINEAR",
          "output": 2
        }
      ]
    },
    {
      "name": "Auto_Close",
      "channels": [
        {
          "sampler": 0,
          "target": {
            "node": 1,
            "path": "translation"
          }
        },
        {
          "sampler": 1,
          "target": {
            "node": 3,
            "path": "translation"
          }
        }
      ],
      "samplers": [
        {
          "input": 3,
          "interpolation": "LINEAR",
          "output": 4
        },
        {
          "input": 3,
          "interpolation": "LINEAR",
          "output": 5
        }
      ]
    }
  ]
}
