{
  "materials": [
    {
      "name": "Std_Textures_01.jpg",
      "pbrMetallicRoughness": {
        "baseColorTexture": {
          "index": 0,
          "texCoord": 0
        },
        "baseColorFactor": [
          1.0,
          1.0,
          1.0,
          1.0
        ],
        "metallicFactor": 0.099999994,
        "roughnessFactor": 1
      },
      "alphaMode": "OPAQUE"
    }
  ],
  "images": [
    {
      "uri": "DFE6452C9D77859CC87A42574522F18B.jpg"
    }
  ],
  "textures": [
    {
      "name": "Textures_01.jpg",
      "sampler": 0,
      "source": 0
    }
  ],
  "meshes": [
    {
      "name": "Lo-BODYa_01",
      "primitives": [
        {
          "material": 0,
          "mode": 4,
          "indices": 4,
          "attributes": {
            "COLOR_0": 7,
            "NORMAL": 6,
            "POSITION": 5,
            "TEXCOORD_0": 8,
            "TEXCOORD_1": 9
          }
        }
      ]
    },
    {
      "name": "Lo-BODY_01",
      "primitives": [
        {
          "material": 0,
          "mode": 4,
          "indices": 10,
          "attributes": {
            "COLOR_0": 13,
            "NORMAL": 12,
            "POSITION": 11,
            "TEXCOORD_0": 14,
            "TEXCOORD_1": 15
          }
        }
      ]
    }
  ],
  "buffers": [
    {
      "byteLength": 7620,
      "uri": "63C0745B6F8342637FB172112217D48E.bin"
    }
  ],
  "nodes": [
    {
      "name": "RootNode",
      "translation": [
        0.0,
        0.0,
        0.0
      ],
      "rotation": [
        0.0,
        0.0,
        0.0,
        1.0
      ],
      "scale": [
        1.0,
        1.0,
        1.0
      ],
      "children": [
        1
      ]
    },
    {
      "name": "Body",
      "translation": [
        0.0,
        0.0,
        0.0
      ],
      "rotation": [
        2.1855694143369E-08,
        0.0,
        0.0,
        1.0
      ],
      "scale": [
        1.0,
        1.0,
        1.0
      ],
      "children": [
        2,
        5
      ]
    },
    {
      "name": "Controller",
      "translation": [
        0.0,
        0.0,
        0.0
      ],
      "rotation": [
        3.30872245021211E-24,
        0.0,
        0.0,
        1.0
      ],
      "scale": [
        1.0,
        1.0,
        1.0
      ],
      "children": [
        3
      ]
    },
    {
      "name": "LeftPiovt",
      "translation": [
        -0.459221482276917,
        0.0,
        0.0
      ],
      "rotation": [
        0.0,
        0.0,
        0.0,
        1.0
      ],
      "scale": [
        1.0,
        1.0,
        1.0
      ],
      "children": [
        4
      ]
    },
    {
      "name": "Lo-BODYa_01",
      "translation": [
        0.0,
        0.0,
        0.0
      ],
      "rotation": [
        3.30872245021211E-24,
        0.0,
        0.0,
        1.0
      ],
      "scale": [
        1.0,
        1.0,
        1.0
      ],
      "mesh": 0
    },
    {
      "name": "MENKUANG",
      "translation": [
        0.0,
        0.0,
        0.0
      ],
      "rotation": [
        3.30872245021211E-24,
        0.0,
        0.0,
        1.0
      ],
      "scale": [
        1.0,
        1.0,
        1.0
      ],
      "children": [
        6
      ]
    },
    {
      "name": "Lo-BODY_01",
      "translation": [
        0.0,
        0.0,
        0.0
      ],
      "rotation": [
        0.0,
        0.0,
        0.0,
        1.0
      ],
      "scale": [
        1.0,
        1.0,
        1.0
      ],
      "mesh": 1
    }
  ],
  "asset": {
    "generator": "FBX2glTF",
    "version": "2.0"
  },
  "scene": 0,
  "bufferViews": [
    {
      "buffer": 0,
      "byteLength": 164,
      "byteOffset": 0
    },
    {
      "buffer": 0,
      "byteLength": 656,
      "byteOffset": 164
    },
    {
      "buffer": 0,
      "byteLength": 160,
      "byteOffset": 820
    },
    {
      "buffer": 0,
      "byteLength": 640,
      "byteOffset": 980
    },
    {
      "buffer": 0,
      "byteLength": 72,
      "byteOffset": 1620,
      "target": 34963
    },
    {
      "buffer": 0,
      "byteLength": 288,
      "byteOffset": 1692,
      "target": 34962
    },
    {
      "buffer": 0,
      "byteLength": 288,
      "byteOffset": 1980,
      "target": 34962
    },
    {
      "buffer": 0,
      "byteLength": 384,
      "byteOffset": 2268,
      "target": 34962
    },
    {
      "buffer": 0,
      "byteLength": 192,
      "byteOffset": 2652,
      "target": 34962
    },
    {
      "buffer": 0,
      "byteLength": 192,
      "byteOffset": 2844,
      "target": 34962
    },
    {
      "buffer": 0,
      "byteLength": 216,
      "byteOffset": 3036,
      "target": 34963
    },
    {
      "buffer": 0,
      "byteLength": 936,
      "byteOffset": 3252,
      "target": 34962
    },
    {
      "buffer": 0,
      "byteLength": 936,
      "byteOffset": 4188,
      "target": 34962
    },
    {
      "buffer": 0,
      "byteLength": 1248,
      "byteOffset": 5124,
      "target": 34962
    },
    {
      "buffer": 0,
      "byteLength": 624,
      "byteOffset": 6372,
      "target": 34962
    },
    {
      "buffer": 0,
      "byteLength": 624,
      "byteOffset": 6996,
      "target": 34962
    }
  ],
  "scenes": [
    {
      "name": "Root Scene",
      "nodes": [
        0
      ]
    }
  ],
  "accessors": [
    {
      "componentType": 5126,
      "type": "SCALAR",
      "count": 41,
      "bufferView": 0,
      "byteOffset": 0,
      "min": [
        0.0
      ],
      "max": [
        1.66666662693024
      ]
    },
    {
      "componentType": 5126,
      "type": "VEC4",
      "count": 41,
      "bufferView": 1,
      "byteOffset": 0
    },
    {
      "componentType": 5126,
      "type": "SCALAR",
      "count": 40,
      "bufferView": 2,
      "byteOffset": 0,
      "min": [
        -3.33786010742188E-06
      ],
      "max": [
        1.62499678134918
      ]
    },
    {
      "componentType": 5126,
      "type": "VEC4",
      "count": 40,
      "bufferView": 3,
      "byteOffset": 0
    },
    {
      "componentType": 5123,
      "type": "SCALAR",
      "count": 36,
      "bufferView": 4,
      "byteOffset": 0
    },
    {
      "componentType": 5126,
      "type": "VEC3",
      "count": 24,
      "bufferView": 5,
      "byteOffset": 0,
      "min": [
        -0.018630675971508,
        -5.32632160599178E-09,
        -0.0400002002716064
      ],
      "max": [
        0.937073647975922,
        2.27785205841064,
        0.0400000028312206
      ]
    },
    {
      "componentType": 5126,
      "type": "VEC3",
      "count": 24,
      "bufferView": 6,
      "byteOffset": 0
    },
    {
      "componentType": 5126,
      "type": "VEC4",
      "count": 24,
      "bufferView": 7,
      "byteOffset": 0
    },
    {
      "componentType": 5126,
      "type": "VEC2",
      "count": 24,
      "bufferView": 8,
      "byteOffset": 0
    },
    {
      "componentType": 5126,
      "type": "VEC2",
      "count": 24,
      "bufferView": 9,
      "byteOffset": 0
    },
    {
      "componentType": 5123,
      "type": "SCALAR",
      "count": 108,
      "bufferView": 10,
      "byteOffset": 0
    },
    {
      "componentType": 5126,
      "type": "VEC3",
      "count": 78,
      "bufferView": 11,
      "byteOffset": 0,
      "min": [
        -0.5,
        -1.57914200826781E-07,
        -0.0500002019107342
      ],
      "max": [
        0.5,
        2.29999971389771,
        0.0500000044703484
      ]
    },
    {
      "componentType": 5126,
      "type": "VEC3",
      "count": 78,
      "bufferView": 12,
      "byteOffset": 0
    },
    {
      "componentType": 5126,
      "type": "VEC4",
      "count": 78,
      "bufferView": 13,
      "byteOffset": 0
    },
    {
      "componentType": 5126,
      "type": "VEC2",
      "count": 78,
      "bufferView": 14,
      "byteOffset": 0
    },
    {
      "componentType": 5126,
      "type": "VEC2",
      "count": 78,
      "bufferView": 15,
      "byteOffset": 0
    }
  ],
  "samplers": [
    {}
  ],
  "animations": [
    {
      "name": "Auto_Open",
      "channels": [
        {
          "sampler": 0,
          "target": {
            "node": 3,
            "path": "rotation"
          }
        }
      ],
      "samplers": [
        {
          "input": 0,
          "interpolation": "LINEAR",
          "output": 1
        }
      ]
    },
    {
      "name": "Auto_Close",
      "channels": [
        {
          "sampler": 0,
          "target": {
            "node": 3,
            "path": "rotation"
          }
        }
      ],
      "samplers": [
        {
          "input": 2,
          "interpolation": "LINEAR",
          "output": 3
        }
      ]
    }
  ]
}
