{
  "materials": [
    {
      "name": "Std_H3C_N68机柜_hcj01.jpgTextures_LM.bmp",
      "occlusionTexture": {
        "index": 0,
        "texCoord": 1
      },
      "pbrMetallicRoughness": {
        "baseColorTexture": {
          "index": 1,
          "texCoord": 0
        },
        "baseColorFactor": [
          1.10000014,
          1.10000014,
          1.10000014,
          1.0
        ],
        "metallicFactor": 0.099999994,
        "roughnessFactor": 0.92
      },
      "alphaMode": "OPAQUE"
    }
  ],
  "images": [
    {
      "uri": "2EE94912A7EB94DBB2A80DA1CCBBE04D.jpg"
    },
    {
      "uri": "AB118EF4031B331014C66C6335850D51.jpg"
    }
  ],
  "textures": [
    {
      "name": "Textures_LM.jpg",
      "sampler": 0,
      "source": 0
    },
    {
      "name": "H3C_N68机柜_hcj01.jpg",
      "sampler": 0,
      "source": 1
    }
  ],
  "meshes": [
    {
      "name": "Lo-BODY_01",
      "primitives": [
        {
          "material": 0,
          "mode": 4,
          "indices": 0,
          "attributes": {
            "COLOR_0": 3,
            "NORMAL": 2,
            "POSITION": 1,
            "TEXCOORD_0": 4,
            "TEXCOORD_1": 5
          }
        }
      ]
    }
  ],
  "buffers": [
    {
      "byteLength": 105064,
      "uri": "0A5B410EBABB3793372544493842EB4B.bin"
    }
  ],
  "nodes": [
    {
      "name": "RootNode",
      "translation": [
        0.0,
        0.0,
        0.0
      ],
      "rotation": [
        0.0,
        0.0,
        0.0,
        1.0
      ],
      "scale": [
        1.0,
        1.0,
        1.0
      ],
      "children": [
        1,
        2,
        3,
        4,
        5,
        6,
        7,
        8,
        9,
        10,
        11,
        12
      ]
    },
    {
      "name": "BasePoint",
      "translation": [
        -1.90734859017994E-08,
        0.0500972308218479,
        0.391805738210678
      ],
      "rotation": [
        -0.70710676908493,
        0.0,
        0.0,
        0.70710676908493
      ],
      "scale": [
        0.000306494650430977,
        0.000306494650430977,
        0.000306494650430977
      ]
    },
    {
      "name": "Lo-电源PORT_10",
      "translation": [
        -0.1500553637743,
        1.79999995231628,
        0.0493233203887939
      ],
      "rotation": [
        -0.70710676908493,
        0.0,
        0.0,
        0.70710676908493
      ],
      "scale": [
        0.0542147494852543,
        0.0542147494852543,
        0.0542147494852543
      ]
    },
    {
      "name": "Lo-电源PORT_09",
      "translation": [
        0.150055348873138,
        1.79999995231628,
        0.0493233203887939
      ],
      "rotation": [
        -0.70710676908493,
        0.0,
        0.0,
        0.70710676908493
      ],
      "scale": [
        0.0542147494852543,
        0.0542147494852543,
        0.0542147494852543
      ]
    },
    {
      "name": "Lo-电源PORT_08",
      "translation": [
        -0.1500553637743,
        1.79999995231628,
        -0.0192548409104347
      ],
      "rotation": [
        -0.70710676908493,
        0.0,
        0.0,
        0.70710676908493
      ],
      "scale": [
        0.0542147494852543,
        0.0542147494852543,
        0.0542147494852543
      ]
    },
    {
      "name": "Lo-电源PORT_07",
      "translation": [
        0.150055348873138,
        1.79999995231628,
        -0.0192548409104347
      ],
      "rotation": [
        -0.70710676908493,
        0.0,
        0.0,
        0.70710676908493
      ],
      "scale": [
        0.0542147494852543,
        0.0542147494852543,
        0.0542147494852543
      ]
    },
    {
      "name": "Lo-电源PORT_06",
      "translation": [
        -0.1500553637743,
        1.79999995231628,
        -0.0878330022096634
      ],
      "rotation": [
        -0.70710676908493,
        0.0,
        0.0,
        0.70710676908493
      ],
      "scale": [
        0.0542147494852543,
        0.0542147494852543,
        0.0542147494852543
      ]
    },
    {
      "name": "Lo-电源PORT_05",
      "translation": [
        0.150055348873138,
        1.79999995231628,
        -0.0878330022096634
      ],
      "rotation": [
        -0.70710676908493,
        0.0,
        0.0,
        0.70710676908493
      ],
      "scale": [
        0.0542147494852543,
        0.0542147494852543,
        0.0542147494852543
      ]
    },
    {
      "name": "Lo-电源PORT_04",
      "translation": [
        -0.1500553637743,
        1.79999995231628,
        -0.156411156058311
      ],
      "rotation": [
        -0.70710676908493,
        0.0,
        0.0,
        0.70710676908493
      ],
      "scale": [
        0.0542147494852543,
        0.0542147494852543,
        0.0542147494852543
      ]
    },
    {
      "name": "Lo-电源PORT_03",
      "translation": [
        0.150055348873138,
        1.79999995231628,
        -0.156411156058311
      ],
      "rotation": [
        -0.70710676908493,
        0.0,
        0.0,
        0.70710676908493
      ],
      "scale": [
        0.0542147494852543,
        0.0542147494852543,
        0.0542147494852543
      ]
    },
    {
      "name": "Lo-电源PORT_02",
      "translation": [
        0.150055348873138,
        1.79999995231628,
        -0.224989324808121
      ],
      "rotation": [
        -0.70710676908493,
        0.0,
        0.0,
        0.70710676908493
      ],
      "scale": [
        0.0542147494852543,
        0.0542147494852543,
        0.0542147494852543
      ]
    },
    {
      "name": "Lo-电源PORT_01",
      "translation": [
        -0.1500553637743,
        1.79999995231628,
        -0.224989324808121
      ],
      "rotation": [
        -0.70710676908493,
        0.0,
        0.0,
        0.70710676908493
      ],
      "scale": [
        0.0542147494852543,
        0.0542147494852543,
        0.0542147494852543
      ]
    },
    {
      "name": "body",
      "translation": [
        1.97264404810937E-09,
        0.0,
        3.81469718035987E-08
      ],
      "rotation": [
        -0.70710676908493,
        0.0,
        0.0,
        0.70710676908493
      ],
      "scale": [
        0.00999999977648258,
        0.00999999977648258,
        0.00999999977648258
      ],
      "children": [
        13
      ]
    },
    {
      "name": "Lo-BODY_01",
      "translation": [
        0.0,
        0.0,
        0.0
      ],
      "rotation": [
        -2.66934325378159E-39,
        -6.16297582203915E-33,
        1.0,
        4.3312576281096E-07
      ],
      "scale": [
        1.0,
        1.0,
        1.0
      ],
      "mesh": 0
    }
  ],
  "asset": {
    "generator": "FBX2glTF",
    "version": "2.0"
  },
  "scene": 0,
  "bufferViews": [
    {
      "buffer": 0,
      "byteLength": 4488,
      "byteOffset": 0,
      "target": 34963
    },
    {
      "buffer": 0,
      "byteLength": 21552,
      "byteOffset": 4488,
      "target": 34962
    },
    {
      "buffer": 0,
      "byteLength": 21552,
      "byteOffset": 26040,
      "target": 34962
    },
    {
      "buffer": 0,
      "byteLength": 28736,
      "byteOffset": 47592,
      "target": 34962
    },
    {
      "buffer": 0,
      "byteLength": 14368,
      "byteOffset": 76328,
      "target": 34962
    },
    {
      "buffer": 0,
      "byteLength": 14368,
      "byteOffset": 90696,
      "target": 34962
    }
  ],
  "scenes": [
    {
      "name": "Root Scene",
      "nodes": [
        0
      ]
    }
  ],
  "accessors": [
    {
      "componentType": 5123,
      "type": "SCALAR",
      "count": 2244,
      "bufferView": 0,
      "byteOffset": 0
    },
    {
      "componentType": 5126,
      "type": "VEC3",
      "count": 1796,
      "bufferView": 1,
      "byteOffset": 0,
      "min": [
        -30.000036239624,
        -42.7899436950684,
        0.0
      ],
      "max": [
        30.0000400543213,
        42.7899589538574,
        220.0
      ]
    },
    {
      "componentType": 5126,
      "type": "VEC3",
      "count": 1796,
      "bufferView": 2,
      "byteOffset": 0
    },
    {
      "componentType": 5126,
      "type": "VEC4",
      "count": 1796,
      "bufferView": 3,
      "byteOffset": 0
    },
    {
      "componentType": 5126,
      "type": "VEC2",
      "count": 1796,
      "bufferView": 4,
      "byteOffset": 0
    },
    {
      "componentType": 5126,
      "type": "VEC2",
      "count": 1796,
      "bufferView": 5,
      "byteOffset": 0
    }
  ],
  "samplers": [
    {}
  ]
}
